<svg xmlns="http://www.w3.org/2000/svg" width="400" height="400" viewBox="0 0 400 400">
  <rect width="400" height="400" fill="transparent"/>

  <!-- Row 1 - solved (green) -->
  <rect x="60" y="40" width="56" height="56" rx="6" fill="#6aaa64"/>
  <rect x="126" y="40" width="56" height="56" rx="6" fill="#c9b458"/>
  <rect x="192" y="40" width="56" height="56" rx="6" fill="#787c7e"/>
  <rect x="258" y="40" width="56" height="56" rx="6" fill="#6aaa64"/>
  <rect x="324" y="40" width="56" height="56" rx="6" fill="#c9b458"/>

  <!-- Row 2 - partial -->
  <rect x="60" y="106" width="56" height="56" rx="6" fill="#c9b458"/>
  <rect x="126" y="106" width="56" height="56" rx="6" fill="#787c7e"/>
  <rect x="192" y="106" width="56" height="56" rx="6" fill="#6aaa64"/>
  <rect x="258" y="106" width="56" height="56" rx="6" fill="#787c7e"/>
  <rect x="324" y="106" width="56" height="56" rx="6" fill="#6aaa64"/>

  <!-- Row 3 - empty -->
  <rect x="60" y="172" width="56" height="56" rx="6" fill="none" stroke="#d3d6da" stroke-width="2"/>
  <rect x="126" y="172" width="56" height="56" rx="6" fill="none" stroke="#d3d6da" stroke-width="2"/>
  <rect x="192" y="172" width="56" height="56" rx="6" fill="none" stroke="#d3d6da" stroke-width="2"/>
  <rect x="258" y="172" width="56" height="56" rx="6" fill="none" stroke="#d3d6da" stroke-width="2"/>
  <rect x="324" y="172" width="56" height="56" rx="6" fill="none" stroke="#d3d6da" stroke-width="2"/>

  <!-- Row 4 - empty -->
  <rect x="60" y="238" width="56" height="56" rx="6" fill="none" stroke="#d3d6da" stroke-width="2"/>
  <rect x="126" y="238" width="56" height="56" rx="6" fill="none" stroke="#d3d6da" stroke-width="2"/>
  <rect x="192" y="238" width="56" height="56" rx="6" fill="none" stroke="#d3d6da" stroke-width="2"/>
  <rect x="258" y="238" width="56" height="56" rx="6" fill="none" stroke="#d3d6da" stroke-width="2"/>
  <rect x="324" y="238" width="56" height="56" rx="6" fill="none" stroke="#d3d6da" stroke-width="2"/>

  <!-- Row 5 - empty -->
  <rect x="60" y="304" width="56" height="56" rx="6" fill="none" stroke="#d3d6da" stroke-width="2"/>
  <rect x="126" y="304" width="56" height="56" rx="6" fill="none" stroke="#d3d6da" stroke-width="2"/>
  <rect x="192" y="304" width="56" height="56" rx="6" fill="none" stroke="#d3d6da" stroke-width="2"/>
  <rect x="258" y="304" width="56" height="56" rx="6" fill="none" stroke="#d3d6da" stroke-width="2"/>
  <rect x="324" y="304" width="56" height="56" rx="6" fill="none" stroke="#d3d6da" stroke-width="2"/>
</svg>
